<svg xmlns="http://www.w3.org/2000/svg" xmlns:xlink="http://www.w3.org/1999/xlink" width="514" height="357" version="1.1" viewBox="0 0 514 357"><title>traditional diagram</title><desc>Created with Sketch.</desc><defs><rect id="path-1" width="120" height="120" x="18" y="17" rx="24"/><filter id="filter-2" width="146.7%" height="146.7%" x="-23.3%" y="-16.7%" filterUnits="objectBoundingBox"><feOffset dx="0" dy="8" in="SourceAlpha" result="shadowOffsetOuter1"/><feGaussianBlur in="shadowOffsetOuter1" result="shadowBlurOuter1" stdDeviation="8"/><feColorMatrix in="shadowBlurOuter1" type="matrix" values="0 0 0 0 0 0 0 0 0 0 0 0 0 0 0 0 0 0 0.103742074 0"/></filter><rect id="path-3" width="120" height="120" x="198" y="17" rx="24"/><filter id="filter-4" width="146.7%" height="146.7%" x="-23.3%" y="-16.7%" filterUnits="objectBoundingBox"><feOffset dx="0" dy="8" in="SourceAlpha" result="shadowOffsetOuter1"/><feGaussianBlur in="shadowOffsetOuter1" result="shadowBlurOuter1" stdDeviation="8"/><feColorMatrix in="shadowBlurOuter1" type="matrix" values="0 0 0 0 0 0 0 0 0 0 0 0 0 0 0 0 0 0 0.103742074 0"/></filter><rect id="path-5" width="120" height="120" x="378" y="17" rx="24"/><filter id="filter-6" width="146.7%" height="146.7%" x="-23.3%" y="-16.7%" filterUnits="objectBoundingBox"><feOffset dx="0" dy="8" in="SourceAlpha" result="shadowOffsetOuter1"/><feGaussianBlur in="shadowOffsetOuter1" result="shadowBlurOuter1" stdDeviation="8"/><feColorMatrix in="shadowBlurOuter1" type="matrix" values="0 0 0 0 0 0 0 0 0 0 0 0 0 0 0 0 0 0 0.103742074 0"/></filter><rect id="path-7" width="120" height="120" x="378" y="197" rx="24"/><filter id="filter-8" width="146.7%" height="146.7%" x="-23.3%" y="-16.7%" filterUnits="objectBoundingBox"><feOffset dx="0" dy="8" in="SourceAlpha" result="shadowOffsetOuter1"/><feGaussianBlur in="shadowOffsetOuter1" result="shadowBlurOuter1" stdDeviation="8"/><feColorMatrix in="shadowBlurOuter1" type="matrix" values="0 0 0 0 0 0 0 0 0 0 0 0 0 0 0 0 0 0 0.103742074 0"/></filter></defs><g id="Page-1" fill="none" fill-rule="evenodd" stroke="none" stroke-width="1"><g id="traditional-diagram"><g id="Rectangle"><use fill="#000" fill-opacity="1" filter="url(#filter-2)" xlink:href="#path-1"/><use fill="#FFF" fill-rule="evenodd" xlink:href="#path-1"/></g><g id="Rectangle-Copy-2"><use fill="#000" fill-opacity="1" filter="url(#filter-4)" xlink:href="#path-3"/><use fill="#FFF" fill-rule="evenodd" xlink:href="#path-3"/></g><path id="Line" stroke="#B8E986" stroke-linecap="square" stroke-width="3" d="M99.5,67 L244,67"/><g id="Rectangle-Copy-3"><use fill="#000" fill-opacity="1" filter="url(#filter-6)" xlink:href="#path-5"/><use fill="#FFF" fill-rule="evenodd" xlink:href="#path-5"/></g><g id="Rectangle-Copy-4"><use fill="#000" fill-opacity="1" filter="url(#filter-8)" xlink:href="#path-7"/><use fill="#FFF" fill-rule="evenodd" xlink:href="#path-7"/></g><rect id="Rectangle-2" width="40" height="40" x="58" y="57" fill="#7ED321" rx="3"/><text id="E" fill="#FFF" font-family="HelveticaNeue-Medium, Helvetica Neue" font-size="20" font-weight="400"><tspan x="71" y="85">E</tspan></text><text id="Proxy" fill="#4A4A4A" font-family="HelveticaNeue-Medium, Helvetica Neue" font-size="16" font-weight="400"><tspan x="236.8" y="13">Proxy</tspan></text><text id="Node" fill="#4A4A4A" font-family="HelveticaNeue-Medium, Helvetica Neue" font-size="16" font-weight="400"><tspan x="418.144" y="13">Node</tspan></text><text id="Auth" fill="#4A4A4A" font-family="HelveticaNeue-Medium, Helvetica Neue" font-size="16" font-weight="400"><tspan x="420.816" y="337">Auth</tspan></text><text id="Audit" fill="#787878" font-family="HelveticaNeue-Medium, Helvetica Neue" font-size="14" font-weight="400"><tspan x="421.018" y="292">Audit</tspan></text><text id="Client" fill="#4A4A4A" font-family="HelveticaNeue-Medium, Helvetica Neue" font-size="16" font-weight="400"><tspan x="56.664" y="13">Client</tspan></text><text id="SSH" fill="#787878" font-family="HelveticaNeue, Helvetica Neue" font-size="12" font-weight="normal"><tspan x="155.892" y="60">SSH</tspan></text><text id="SSH-Copy" fill="#787878" font-family="HelveticaNeue, Helvetica Neue" font-size="12" font-weight="normal"><tspan x="335.892" y="80">SSH</tspan></text><text id="HTTPS" fill="#787878" font-family="HelveticaNeue, Helvetica Neue" font-size="12" font-weight="normal"><tspan x="444" y="171">HTTPS</tspan></text><path id="Line-Copy" stroke="#B8E986" stroke-linecap="square" stroke-width="3" d="M269,87 L418,87"/><path id="Line-2" stroke="#B8E986" stroke-linecap="square" stroke-width="3" d="M248.5,67.5 L268.5,87.5"/><circle id="Oval" cx="248" cy="67" r="5" fill="#7ED321"/><circle id="Oval-Copy" cx="268" cy="87" r="5" fill="#7ED321"/><rect id="Rectangle-2-Copy" width="40" height="40" x="418" y="57" fill="#F5A623" rx="3"/><text id="D" fill="#FFF" font-family="HelveticaNeue, Helvetica Neue" font-size="20" font-weight="normal"><tspan x="431" y="85">D</tspan></text><path id="Line-3" fill="#F5A623" stroke="#F5A623" stroke-linecap="square" stroke-width="2" d="M438,96 L438,233"/><path id="Line-3-decoration-1" fill="#F5A623" stroke="#F5A623" stroke-linecap="square" stroke-width="2" d="M438,233 L441,222.2 L435,222.2 L438,233 Z"/><rect id="Rectangle-16-Copy-3" width="280" height="120" x="0" y="237"/><rect id="Rectangle-4" width="14" height="3" x="19" y="310" fill="#B8E986"/><rect id="Rectangle-4-Copy" width="14" height="3" x="19" y="330" fill="#F5A623"/><text id="SSH-connection" fill="#787878" font-family="HelveticaNeue, Helvetica Neue" font-size="14" font-weight="normal"><tspan x="40" y="317">SSH connection</tspan></text><text id="HTTPS-connection" fill="#787878" font-family="HelveticaNeue, Helvetica Neue" font-size="14" font-weight="normal"><tspan x="40" y="337">HTTPS connection</tspan></text><text id="Encrypted" fill="#787878" font-family="HelveticaNeue, Helvetica Neue" font-size="14" font-weight="normal" line-spacing="21"><tspan x="39" y="274">Encrypted</tspan></text><g id="Group-2" transform="translate(418.000000, 237.000000)"><path id="Combined-Shape" fill="#F5A623" d="M0,36 C0,38.209139 8.954305,40 20,40 C31.045695,40 40,38.209139 40,36 L40,4 L0,4 L0,36 Z"/><ellipse id="Oval-2" cx="20" cy="4" fill="#FFCB76" rx="20" ry="4"/></g><path id="Combined-Shape" fill="#919191" d="M75.7714138,112.8 L94.2731195,112.8 L98,116.583984 L98,117.6 L93.6918145,121.727734 L91.4393065,119.493164 L89.1533744,121.727734 L86.7562243,119.493164 L84.6833461,121.727734 L82.2818958,119.493164 L79.3796709,122.4 L75.6539854,122.4 C73.9898379,125.156631 70.9639991,127 67.5072883,127 C62.256558,127 58,122.746705 58,117.5 C58,112.253295 62.256558,108 67.5072883,108 C71.0469426,108 74.1347993,109.932893 75.7714138,112.8 Z M63.3040661,120 C64.6858372,120 65.8059841,118.880712 65.8059841,117.5 C65.8059841,116.119288 64.6858372,115 63.3040661,115 C61.922295,115 60.8021481,116.119288 60.8021481,117.5 C60.8021481,118.880712 61.922295,120 63.3040661,120 Z" opacity=".87"/><text id="Decrypted" fill="#787878" font-family="HelveticaNeue, Helvetica Neue" font-size="14" font-weight="normal"><tspan x="39" y="297">Decrypted</tspan></text><rect id="Rectangle-2-Copy-2" width="15" height="14" x="18" y="265" fill="#7ED321" rx="2"/><text id="E-Copy" fill="#FFF" font-family="HelveticaNeue-Medium, Helvetica Neue" font-size="10" font-weight="400"><tspan x="22" y="276">E</tspan></text><rect id="Rectangle-2-Copy-3" width="15" height="14" x="18" y="285" fill="#F5A623" rx="2"/><text id="D" fill="#FFF" font-family="HelveticaNeue-Medium, Helvetica Neue" font-size="10" font-weight="400"><tspan x="22" y="296">D</tspan></text></g></g></svg>